<?xml version="1.0" encoding="UTF-8" standalone="no"?>
<svg
   xmlns:dc="http://purl.org/dc/elements/1.1/"
   xmlns:cc="http://creativecommons.org/ns#"
   xmlns:rdf="http://www.w3.org/1999/02/22-rdf-syntax-ns#"
   xmlns:svg="http://www.w3.org/2000/svg"
   xmlns="http://www.w3.org/2000/svg"
   xmlns:sodipodi="http://sodipodi.sourceforge.net/DTD/sodipodi-0.dtd"
   xmlns:inkscape="http://www.inkscape.org/namespaces/inkscape"
   version="1.1"
   width="4.9794908cm"
   height="2.8789396cm"
   viewBox="0 0 19604.294 11334.409"
   id="svg8210"
   sodipodi:docname="lm35a.svg"
   inkscape:version="0.92.5 (2060ec1f9f, 2020-04-08)">
  <metadata
     id="metadata8216">
    <rdf:RDF>
      <cc:Work
         rdf:about="">
        <dc:format>image/svg+xml</dc:format>
        <dc:type
           rdf:resource="http://purl.org/dc/dcmitype/StillImage" />
      </cc:Work>
    </rdf:RDF>
  </metadata>
  <defs
     id="defs8214" />
  <sodipodi:namedview
     pagecolor="#ffffff"
     bordercolor="#666666"
     borderopacity="1"
     objecttolerance="10"
     gridtolerance="10"
     guidetolerance="10"
     inkscape:pageopacity="0"
     inkscape:pageshadow="2"
     inkscape:window-width="1920"
     inkscape:window-height="1151"
     id="namedview8212"
     showgrid="false"
     inkscape:zoom="1.2879044"
     inkscape:cx="74.102703"
     inkscape:cy="-202.37563"
     inkscape:window-x="0"
     inkscape:window-y="25"
     inkscape:window-maximized="1"
     inkscape:current-layer="svg8210" />
  <title
     id="title2">SVG Picture created as lm35-pico.svg date 2024/02/01 21:25:25 </title>
  <desc
     id="desc4">Picture generated by Eeschema-SVG </desc>
  <g
     style="fill:#000000;fill-opacity:1;stroke:#000000;stroke-linecap:round;stroke-linejoin:round;stroke-opacity:1"
     id="g6"
     transform="translate(-6252.6465,-7195.5943)" />
  <g
     style="fill:#840000;fill-opacity:0;stroke:#840000;stroke-width:0;stroke-linecap:round;stroke-linejoin:round;stroke-opacity:1"
     id="g8"
     transform="translate(-6252.6465,-7195.5943)" />
  <g
     style="fill:#840000;fill-opacity:0;stroke:#840000;stroke-width:118.11023712;stroke-linecap:round;stroke-linejoin:round;stroke-opacity:1"
     id="g630"
     transform="translate(-6252.6465,-7195.5943)">
    <text
       x="70079.609"
       y="71164.25"
       textLength="60"
       font-size="787.401575"
       lengthAdjust="spacingAndGlyphs"
       id="text624"
       style="font-size:787.40155029px;text-anchor:start;opacity:0" />
    <g
       class="stroked-text"
       id="g628">
      <desc
         id="desc626" />
    </g>
  </g>
  <text
     style="font-size:787.40155029px;text-anchor:start;opacity:0;fill:#840000;fill-opacity:0;stroke:#840000;stroke-width:60;stroke-linecap:round;stroke-linejoin:round;stroke-opacity:1"
     id="text632"
     lengthAdjust="spacingAndGlyphs"
     font-size="787.401575"
     textLength="118.11024"
     y="69983.148"
     x="70079.609"
     transform="translate(-6252.6465,-7195.5943)" />
  <g
     style="fill:#840000;fill-opacity:0;stroke:#840000;stroke-width:60;stroke-linecap:round;stroke-linejoin:round;stroke-opacity:1"
     id="g636"
     class="stroked-text"
     transform="translate(-6252.6465,-7195.5943)">
    <desc
       id="desc634" />
  </g>
  <text
     style="font-size:787.40155029px;text-anchor:start;opacity:0;fill:#840000;fill-opacity:0;stroke:#840000;stroke-width:60;stroke-linecap:round;stroke-linejoin:round;stroke-opacity:1"
     id="text638"
     lengthAdjust="spacingAndGlyphs"
     font-size="787.401575"
     textLength="60"
     y="68802.047"
     x="70079.609"
     transform="translate(-6252.6465,-7195.5943)" />
  <g
     style="fill:#840000;fill-opacity:0;stroke:#840000;stroke-width:60;stroke-linecap:round;stroke-linejoin:round;stroke-opacity:1"
     id="g642"
     class="stroked-text"
     transform="translate(-6252.6465,-7195.5943)">
    <desc
       id="desc640" />
  </g>
  <text
     style="font-size:787.40155029px;text-anchor:start;opacity:0;fill:#840000;fill-opacity:0;stroke:#840000;stroke-width:60;stroke-linecap:round;stroke-linejoin:round;stroke-opacity:1"
     id="text644"
     lengthAdjust="spacingAndGlyphs"
     font-size="787.401575"
     textLength="60"
     y="67620.945"
     x="70079.609"
     transform="translate(-6252.6465,-7195.5943)" />
  <g
     style="fill:#840000;fill-opacity:0;stroke:#840000;stroke-width:60;stroke-linecap:round;stroke-linejoin:round;stroke-opacity:1"
     id="g648"
     class="stroked-text"
     transform="translate(-6252.6465,-7195.5943)">
    <desc
       id="desc646" />
  </g>
  <text
     style="font-size:787.40155029px;text-anchor:start;opacity:0;fill:#840000;fill-opacity:0;stroke:#840000;stroke-width:60;stroke-linecap:round;stroke-linejoin:round;stroke-opacity:1"
     id="text650"
     lengthAdjust="spacingAndGlyphs"
     font-size="787.401575"
     textLength="60"
     y="66439.844"
     x="70079.609"
     transform="translate(-6252.6465,-7195.5943)" />
  <g
     style="fill:#840000;fill-opacity:0;stroke:#840000;stroke-width:60;stroke-linecap:round;stroke-linejoin:round;stroke-opacity:1"
     id="g654"
     class="stroked-text"
     transform="translate(-6252.6465,-7195.5943)">
    <desc
       id="desc652" />
  </g>
  <g
     style="fill:#006464;fill-opacity:0;stroke:#006464;stroke-width:60;stroke-linecap:round;stroke-linejoin:round;stroke-opacity:1"
     id="g7176"
     transform="translate(-6252.6465,-7195.5943)">
    <g
       id="g7152" />
    <g
       style="fill:#840000;fill-opacity:0;stroke:#840000;stroke-width:60;stroke-linecap:round;stroke-linejoin:round;stroke-opacity:1"
       id="g7160">
      <path
         style="fill:none;fill-opacity:0;stroke:#840000;stroke-width:60;stroke-linecap:round;stroke-linejoin:round;stroke-opacity:1"
         d="m 11200,9000 300,-500"
         id="path7154"
         inkscape:connector-curvature="0" />
      <path
         style="fill:none;fill-opacity:0;stroke:#840000;stroke-width:60;stroke-linecap:round;stroke-linejoin:round;stroke-opacity:1"
         d="M 11500,9500 V 8500"
         id="path7156"
         inkscape:connector-curvature="0" />
      <path
         style="fill:none;fill-opacity:0;stroke:#840000;stroke-width:60;stroke-linecap:round;stroke-linejoin:round;stroke-opacity:1"
         d="m 11500,8500 300,500"
         id="path7158"
         inkscape:connector-curvature="0" />
    </g>
    <g
       style="fill:#006464;fill-opacity:0;stroke:#006464;stroke-width:60;stroke-linecap:round;stroke-linejoin:round;stroke-opacity:1"
       id="g7174">
      <text
         x="11500"
         y="7749.9604"
         textLength="1488.5826"
         font-size="666.653543"
         lengthAdjust="spacingAndGlyphs"
         id="text7162"
         style="font-size:666.65356445px;text-anchor:middle;opacity:0">VCC</text>
      <g
         class="stroked-text"
         id="g7172">
        <desc
           id="desc7164">VCC</desc>
        <path
           d="m 10833,7226 167,500 166,-500"
           id="path7166"
           inkscape:connector-curvature="0" />
        <path
           d="m 11619,7678 -24,24 -72,24 h -47 l -72,-24 -47,-48 -24,-47 -24,-96 v -71 l 24,-95 24,-48 47,-48 72,-23 h 47 l 72,23 24,24"
           id="path7168"
           inkscape:connector-curvature="0" />
        <path
           d="m 12119,7678 -24,24 -72,24 h -47 l -72,-24 -47,-48 -24,-47 -24,-96 v -71 l 24,-95 24,-48 47,-48 72,-23 h 47 l 72,23 24,24"
           id="path7170"
           inkscape:connector-curvature="0" />
      </g>
    </g>
  </g>
  <g
     style="fill:#006464;fill-opacity:0;stroke:#006464;stroke-width:60;stroke-linecap:round;stroke-linejoin:round;stroke-opacity:1"
     id="g7190"
     transform="translate(-6252.6465,-7195.5943)">
    <g
       id="g7178" />
    <g
       style="fill:#840000;fill-opacity:0;stroke:#840000;stroke-width:60;stroke-linecap:round;stroke-linejoin:round;stroke-opacity:1"
       id="g7188">
      <path
         style="fill:none;fill-opacity:0;stroke:#840000;stroke-width:60;stroke-linecap:round;stroke-linejoin:round;stroke-opacity:1"
         d="m 11250,18250 h 500"
         id="path7180"
         inkscape:connector-curvature="0" />
      <path
         style="fill:none;fill-opacity:0;stroke:#840000;stroke-width:60;stroke-linecap:round;stroke-linejoin:round;stroke-opacity:1"
         d="m 11450,18500 h 100"
         id="path7182"
         inkscape:connector-curvature="0" />
      <path
         style="fill:none;fill-opacity:0;stroke:#840000;stroke-width:60;stroke-linecap:round;stroke-linejoin:round;stroke-opacity:1"
         d="m 11500,18000 v -500"
         id="path7184"
         inkscape:connector-curvature="0" />
      <path
         style="fill:none;fill-opacity:0;stroke:#840000;stroke-width:60;stroke-linecap:round;stroke-linejoin:round;stroke-opacity:1"
         d="M 12000,18000 H 11000"
         id="path7186"
         inkscape:connector-curvature="0" />
    </g>
  </g>
  <g
     style="fill:#840000;fill-opacity:0;stroke:#840000;stroke-width:60;stroke-linecap:round;stroke-linejoin:round;stroke-opacity:1"
     id="g7350"
     transform="translate(-6252.6465,-7195.5943)">
    <g
       id="g7192" />
    <g
       style="fill:#ffffc2;fill-opacity:0;stroke:#ffffc2;stroke-width:60;stroke-linecap:round;stroke-linejoin:round;stroke-opacity:1"
       id="g7194" />
    <g
       style="fill:#ffffc2;fill-opacity:0.6;stroke:#ffffc2;stroke-width:0.03937;stroke-linecap:round;stroke-linejoin:round;stroke-opacity:1"
       id="g7198">
      <rect
         x="8500"
         y="11500"
         width="6000"
         height="4000"
         rx="0.000000"
         id="rect7196" />
    </g>
    <g
       style="fill:#840000;fill-opacity:0.6;stroke:#840000;stroke-width:0.03937;stroke-linecap:round;stroke-linejoin:round;stroke-opacity:1"
       id="g7200" />
    <g
       style="fill:#840000;fill-opacity:0;stroke:#840000;stroke-width:100;stroke-linecap:round;stroke-linejoin:round;stroke-opacity:1"
       id="g7206">
      <rect
         x="8500"
         y="11500"
         width="6000"
         height="4000"
         rx="0.000000"
         id="rect7202" />
      <rect
         x="8500"
         y="11500"
         width="6000"
         height="4000"
         rx="0.000000"
         id="rect7204" />
    </g>
    <g
       style="fill:#840000;fill-opacity:1;stroke:#840000;stroke-width:100;stroke-linecap:round;stroke-linejoin:round;stroke-opacity:1"
       id="g7212">
      <circle
         cx="9750"
         cy="14500"
         r="500"
         id="circle7208" />
      <rect
         x="9500"
         y="13500"
         width="500"
         height="750"
         rx="0.000000"
         id="rect7210" />
    </g>
    <g
       style="fill:#840000;fill-opacity:0;stroke:#840000;stroke-width:100;stroke-linecap:round;stroke-linejoin:round;stroke-opacity:1"
       id="g7230">
      <path
         d="m 9999.9996,12249.564 a 250,250 0 0 0 -499.9992,0"
         id="path7214"
         inkscape:connector-curvature="0" />
      <path
         style="fill:none;fill-opacity:0;stroke:#840000;stroke-width:100;stroke-linecap:round;stroke-linejoin:round;stroke-opacity:1"
         d="m 9500,13250 h 250"
         id="path7216"
         inkscape:connector-curvature="0" />
      <path
         style="fill:none;fill-opacity:0;stroke:#840000;stroke-width:100;stroke-linecap:round;stroke-linejoin:round;stroke-opacity:1"
         d="m 9500,13000 h 250"
         id="path7218"
         inkscape:connector-curvature="0" />
      <path
         style="fill:none;fill-opacity:0;stroke:#840000;stroke-width:100;stroke-linecap:round;stroke-linejoin:round;stroke-opacity:1"
         d="m 9500,12750 h 250"
         id="path7220"
         inkscape:connector-curvature="0" />
      <path
         style="fill:none;fill-opacity:0;stroke:#840000;stroke-width:100;stroke-linecap:round;stroke-linejoin:round;stroke-opacity:1"
         d="m 9500,12500 h 250"
         id="path7222"
         inkscape:connector-curvature="0" />
      <path
         style="fill:none;fill-opacity:0;stroke:#840000;stroke-width:100;stroke-linecap:round;stroke-linejoin:round;stroke-opacity:1"
         d="m 9500,12250 v 1250"
         id="path7224"
         inkscape:connector-curvature="0" />
      <path
         style="fill:none;fill-opacity:0;stroke:#840000;stroke-width:100;stroke-linecap:round;stroke-linejoin:round;stroke-opacity:1"
         d="m 9500,12250 h 250"
         id="path7226"
         inkscape:connector-curvature="0" />
      <path
         style="fill:none;fill-opacity:0;stroke:#840000;stroke-width:100;stroke-linecap:round;stroke-linejoin:round;stroke-opacity:1"
         d="m 10000,12250 v 1250"
         id="path7228"
         inkscape:connector-curvature="0" />
    </g>
    <g
       style="fill:#840000;fill-opacity:0;stroke:#840000;stroke-width:60;stroke-linecap:round;stroke-linejoin:round;stroke-opacity:1"
       id="g7234">
      <path
         d="M 11500,11500 V 10500"
         id="path7232"
         inkscape:connector-curvature="0" />
    </g>
    <g
       style="fill:#006464;fill-opacity:0;stroke:#006464;stroke-width:60;stroke-linecap:round;stroke-linejoin:round;stroke-opacity:1"
       id="g7252">
      <g
         transform="rotate(-90,11500,11900)"
         id="g7238">
        <text
           x="11500"
           y="12150"
           textLength="1583.8188"
           font-size="666.653543"
           lengthAdjust="spacingAndGlyphs"
           id="text7236"
           style="font-size:666.65356445px;text-anchor:end;opacity:0">+VS</text>
      </g>
      <g
         class="stroked-text"
         id="g7250">
        <desc
           id="desc7240">+VS</desc>
        <path
           d="m 11535,13334 v -381"
           id="path7242"
           inkscape:connector-curvature="0" />
        <path
           d="m 11726,13144 h -381"
           id="path7244"
           inkscape:connector-curvature="0" />
        <path
           d="m 11226,12787 500,-167 -500,-167"
           id="path7246"
           inkscape:connector-curvature="0" />
        <path
           d="m 11702,12310 24,-71 v -119 l -24,-48 -24,-23 -48,-24 h -47 l -48,24 -24,23 -23,48 -24,95 -24,48 -24,24 -47,23 h -48 l -48,-23 -23,-24 -24,-48 v -119 l 24,-71"
           id="path7248"
           inkscape:connector-curvature="0" />
      </g>
    </g>
    <g
       style="fill:#a90000;fill-opacity:0;stroke:#a90000;stroke-width:60;stroke-linecap:round;stroke-linejoin:round;stroke-opacity:1"
       id="g7266">
      <g
         transform="rotate(-90,11400,11000)"
         id="g7256">
        <text
           x="11400"
           y="11000"
           textLength="536.18109"
           font-size="666.653543"
           lengthAdjust="spacingAndGlyphs"
           id="text7254"
           style="font-size:666.65356445px;text-anchor:middle;opacity:0">1</text>
      </g>
      <g
         class="stroked-text"
         id="g7264">
        <desc
           id="desc7258">1</desc>
        <path
           d="m 11376,10857 v 285"
           id="path7260"
           inkscape:connector-curvature="0" />
        <path
           d="m 11376,11000 h -500 l 71,47 48,48 24,47"
           id="path7262"
           inkscape:connector-curvature="0" />
      </g>
    </g>
    <g
       style="fill:#840000;fill-opacity:0;stroke:#840000;stroke-width:60;stroke-linecap:round;stroke-linejoin:round;stroke-opacity:1"
       id="g7270">
      <path
         d="m 14500,13500 h 1000"
         id="path7268"
         inkscape:connector-curvature="0" />
    </g>
    <g
       style="fill:#006464;fill-opacity:0;stroke:#006464;stroke-width:60;stroke-linecap:round;stroke-linejoin:round;stroke-opacity:1"
       id="g7290">
      <text
         x="14100"
         y="13750"
         textLength="1679.0552"
         font-size="666.653543"
         lengthAdjust="spacingAndGlyphs"
         id="text7272"
         style="font-size:666.65356445px;text-anchor:end;opacity:0">Vout</text>
      <g
         class="stroked-text"
         id="g7288">
        <desc
           id="desc7274">Vout</desc>
        <path
           d="m 12498,13226 167,500 166,-500"
           id="path7276"
           inkscape:connector-curvature="0" />
        <path
           d="m 13070,13726 -48,-24 -24,-24 -24,-48 v -142 l 24,-48 24,-24 48,-24 h 71 l 48,24 23,24 24,48 v 142 l -24,48 -23,24 -48,24 h -71"
           id="path7278"
           inkscape:connector-curvature="0" />
        <path
           d="m 13665,13392 v 334"
           id="path7280"
           inkscape:connector-curvature="0" />
        <path
           d="m 13450,13392 v 262 l 24,48 48,24 h 71 l 48,-24 24,-24"
           id="path7282"
           inkscape:connector-curvature="0" />
        <path
           d="m 13831,13392 h 191"
           id="path7284"
           inkscape:connector-curvature="0" />
        <path
           d="m 13903,13226 v 428 l 24,48 47,24 h 48"
           id="path7286"
           inkscape:connector-curvature="0" />
      </g>
    </g>
    <g
       style="fill:#a90000;fill-opacity:0;stroke:#a90000;stroke-width:60;stroke-linecap:round;stroke-linejoin:round;stroke-opacity:1"
       id="g7300">
      <text
         x="15000"
         y="13400"
         textLength="536.18109"
         font-size="666.653543"
         lengthAdjust="spacingAndGlyphs"
         id="text7292"
         style="font-size:666.65356445px;text-anchor:middle;opacity:0">2</text>
      <g
         class="stroked-text"
         id="g7298">
        <desc
           id="desc7294">2</desc>
        <path
           d="m 14857,12923 23,-23 48,-24 h 119 l 48,24 24,23 23,48 v 48 l -23,71 -286,286 h 309"
           id="path7296"
           inkscape:connector-curvature="0" />
      </g>
    </g>
    <g
       style="fill:#840000;fill-opacity:0;stroke:#840000;stroke-width:60;stroke-linecap:round;stroke-linejoin:round;stroke-opacity:1"
       id="g7304">
      <path
         d="m 11500,15500 v 1000"
         id="path7302"
         inkscape:connector-curvature="0" />
    </g>
    <g
       style="fill:#006464;fill-opacity:0;stroke:#006464;stroke-width:60;stroke-linecap:round;stroke-linejoin:round;stroke-opacity:1"
       id="g7320">
      <g
         transform="rotate(-90,11500,15100)"
         id="g7308">
        <text
           x="11500"
           y="15350"
           textLength="1583.8188"
           font-size="666.653543"
           lengthAdjust="spacingAndGlyphs"
           id="text7306"
           style="font-size:666.65356445px;text-anchor:start;opacity:0">GND</text>
      </g>
      <g
         class="stroked-text"
         id="g7318">
        <desc
           id="desc7310">GND</desc>
        <path
           d="m 11250,14689 -24,47 v 72 l 24,71 47,48 48,23 95,24 h 71 l 96,-24 47,-23 48,-48 24,-71 v -48 l -24,-71 -24,-24 h -167 v 95"
           id="path7312"
           inkscape:connector-curvature="0" />
        <path
           d="m 11726,14450 h -500 l 500,-285 h -500"
           id="path7314"
           inkscape:connector-curvature="0" />
        <path
           d="m 11726,13927 h -500 v -119 l 24,-72 47,-47 48,-24 95,-24 h 71 l 96,24 47,24 48,47 24,72 v 119"
           id="path7316"
           inkscape:connector-curvature="0" />
      </g>
    </g>
    <g
       style="fill:#a90000;fill-opacity:0;stroke:#a90000;stroke-width:60;stroke-linecap:round;stroke-linejoin:round;stroke-opacity:1"
       id="g7332">
      <g
         transform="rotate(-90,11400,16000)"
         id="g7324">
        <text
           x="11400"
           y="16000"
           textLength="536.18109"
           font-size="666.653543"
           lengthAdjust="spacingAndGlyphs"
           id="text7322"
           style="font-size:666.65356445px;text-anchor:middle;opacity:0">3</text>
      </g>
      <g
         class="stroked-text"
         id="g7330">
        <desc
           id="desc7326">3</desc>
        <path
           d="m 10876,16166 v -309 l 190,166 v -71 l 24,-48 24,-24 47,-23 h 119 l 48,23 24,24 24,48 v 143 l -24,47 -24,24"
           id="path7328"
           inkscape:connector-curvature="0" />
      </g>
    </g>
    <g
       style="fill:#006464;fill-opacity:0;stroke:#006464;stroke-width:60;stroke-linecap:round;stroke-linejoin:round;stroke-opacity:1"
       id="g7348">
      <text
         x="7204.4487"
         y="13749.961"
         textLength="1988.5826"
         font-size="666.653543"
         lengthAdjust="spacingAndGlyphs"
         id="text7334"
         style="font-size:666.65356445px;text-anchor:middle;opacity:0">LM35</text>
      <g
         class="stroked-text"
         id="g7346">
        <desc
           id="desc7336">LM35</desc>
        <path
           d="m 6597,13726 h -238 v -500"
           id="path7338"
           inkscape:connector-curvature="0" />
        <path
           d="m 6763,13726 v -500 l 167,357 167,-357 v 500"
           id="path7340"
           inkscape:connector-curvature="0" />
        <path
           d="m 7287,13226 h 310 l -167,190 h 72 l 47,24 24,24 24,47 v 119 l -24,48 -24,24 -47,24 h -143 l -48,-24 -24,-24"
           id="path7342"
           inkscape:connector-curvature="0" />
        <path
           d="m 8049,13226 h -238 l -24,238 24,-24 48,-24 h 119 l 47,24 24,24 24,47 v 119 l -24,48 -24,24 -47,24 h -119 l -48,-24 -24,-24"
           id="path7344"
           inkscape:connector-curvature="0" />
      </g>
    </g>
  </g>
  <g
     style="fill:#006464;fill-opacity:0;stroke:#006464;stroke-width:60;stroke-linecap:round;stroke-linejoin:round;stroke-opacity:1"
     id="g7414"
     transform="translate(-6252.6465,-7195.5943)">
    <g
       id="g7352" />
    <g
       style="fill:#840000;fill-opacity:0;stroke:#840000;stroke-width:60;stroke-linecap:round;stroke-linejoin:round;stroke-opacity:1"
       id="g7358">
      <circle
         cx="18300"
         cy="13500"
         r="300"
         id="circle7354" />
      <path
         d="M 18000,13500 H 17000"
         id="path7356"
         inkscape:connector-curvature="0" />
    </g>
    <g
       style="fill:#006464;fill-opacity:0;stroke:#006464;stroke-width:60;stroke-linecap:round;stroke-linejoin:round;stroke-opacity:1"
       id="g7412">
      <text
         x="22387.441"
         y="13749.961"
         textLength="7012.3623"
         font-size="666.653543"
         lengthAdjust="spacingAndGlyphs"
         id="text7360"
         style="font-size:666.65356445px;text-anchor:middle;opacity:0">Output (10mV/°C)</text>
      <g
         class="stroked-text"
         id="g7410">
        <desc
           id="desc7362">Output (10mV/°C)</desc>
        <path
           d="m 19125,13226 h 95 l 48,23 47,48 24,95 v 167 l -24,95 -47,48 -48,24 h -95 l -48,-24 -47,-48 -24,-95 v -167 l 24,-95 47,-48 48,-23"
           id="path7364"
           inkscape:connector-curvature="0" />
        <path
           d="m 19768,13392 v 334"
           id="path7366"
           inkscape:connector-curvature="0" />
        <path
           d="m 19554,13392 v 262 l 23,48 48,24 h 71 l 48,-24 24,-24"
           id="path7368"
           inkscape:connector-curvature="0" />
        <path
           d="m 19935,13392 h 190"
           id="path7370"
           inkscape:connector-curvature="0" />
        <path
           d="m 20006,13226 v 428 l 24,48 47,24 h 48"
           id="path7372"
           inkscape:connector-curvature="0" />
        <path
           d="m 20292,13392 v 500"
           id="path7374"
           inkscape:connector-curvature="0" />
        <path
           d="m 20292,13416 47,-24 h 96 l 47,24 24,24 24,48 v 142 l -24,48 -24,24 -47,24 h -96 l -47,-24"
           id="path7376"
           inkscape:connector-curvature="0" />
        <path
           d="m 20958,13392 v 334"
           id="path7378"
           inkscape:connector-curvature="0" />
        <path
           d="m 20744,13392 v 262 l 24,48 47,24 h 72 l 48,-24 23,-24"
           id="path7380"
           inkscape:connector-curvature="0" />
        <path
           d="m 21125,13392 h 190"
           id="path7382"
           inkscape:connector-curvature="0" />
        <path
           d="m 21196,13226 v 428 l 24,48 48,24 h 47"
           id="path7384"
           inkscape:connector-curvature="0" />
        <path
           d="m 22006,13916 -24,-24 -47,-71 -24,-48 -24,-71 -24,-119 v -95 l 24,-120 24,-71 24,-48 47,-71 24,-24"
           id="path7386"
           inkscape:connector-curvature="0" />
        <path
           d="m 22458,13726 h -285"
           id="path7388"
           inkscape:connector-curvature="0" />
        <path
           d="m 22315,13726 v -500 l -47,71 -48,48 -47,23"
           id="path7390"
           inkscape:connector-curvature="0" />
        <path
           d="m 22768,13226 h 47 l 48,23 24,24 24,48 24,95 v 119 l -24,95 -24,48 -24,24 -48,24 h -47 l -48,-24 -24,-24 -23,-48 -24,-95 v -119 l 24,-95 23,-48 24,-24 48,-23"
           id="path7392"
           inkscape:connector-curvature="0" />
        <path
           d="m 23149,13726 v -334"
           id="path7394"
           inkscape:connector-curvature="0" />
        <path
           d="m 23149,13440 24,-24 47,-24 h 72 l 47,24 24,48 v 262"
           id="path7396"
           inkscape:connector-curvature="0" />
        <path
           d="m 23363,13464 24,-48 48,-24 h 71 l 48,24 23,48 v 262"
           id="path7398"
           inkscape:connector-curvature="0" />
        <path
           d="m 23744,13226 167,500 166,-500"
           id="path7400"
           inkscape:connector-curvature="0" />
        <path
           d="m 24601,13202 -428,643"
           id="path7402"
           inkscape:connector-curvature="0" />
        <path
           d="m 24839,13226 -47,23 -24,48 24,48 47,23 48,-23 24,-48 -24,-48 -48,-23"
           id="path7404"
           inkscape:connector-curvature="0" />
        <path
           d="m 25435,13678 -24,24 -72,24 h -47 l -72,-24 -47,-48 -24,-47 -24,-96 v -71 l 24,-95 24,-48 47,-48 72,-23 h 47 l 72,23 24,24"
           id="path7406"
           inkscape:connector-curvature="0" />
        <path
           d="m 25601,13916 24,-24 48,-71 23,-48 24,-71 24,-119 v -95 l -24,-120 -24,-71 -23,-48 -48,-71 -24,-24"
           id="path7408"
           inkscape:connector-curvature="0" />
      </g>
    </g>
  </g>
  <g
     style="fill:#006464;fill-opacity:0;stroke:#006464;stroke-width:62.51968384;stroke-linecap:round;stroke-linejoin:round;stroke-opacity:1"
     id="g7506"
     transform="translate(-6252.6465,-7195.5943)" />
  <g
     style="fill:#006464;fill-opacity:0;stroke:#006464;stroke-width:60;stroke-linecap:round;stroke-linejoin:round;stroke-opacity:1"
     id="g7508"
     transform="translate(-6252.6465,-7195.5943)" />
  <g
     style="fill:#0000c2;fill-opacity:0;stroke:#0000c2;stroke-width:62.51968384;stroke-linecap:round;stroke-linejoin:round;stroke-opacity:1"
     id="g7568"
     transform="translate(-6252.6465,-7195.5943)" />
  <g
     style="fill:#0000c2;fill-opacity:0;stroke:#0000c2;stroke-width:62.51968384;stroke-linecap:round;stroke-linejoin:round;stroke-opacity:1"
     id="g7628"
     transform="translate(-6252.6465,-7195.5943)" />
  <g
     style="fill:#0000c2;fill-opacity:0;stroke:#0000c2;stroke-width:62.51968384;stroke-linecap:round;stroke-linejoin:round;stroke-opacity:1"
     id="g7682"
     transform="translate(-6252.6465,-7195.5943)" />
  <path
     style="fill:#009600;fill-opacity:0;stroke:#009600;stroke-width:60;stroke-linecap:round;stroke-linejoin:round;stroke-opacity:1"
     inkscape:connector-curvature="0"
     id="path7766"
     d="m 9247.354,6304.4057 h 1500" />
  <path
     style="fill:#009600;fill-opacity:0;stroke:#009600;stroke-width:60;stroke-linecap:round;stroke-linejoin:round;stroke-opacity:1"
     inkscape:connector-curvature="0"
     id="path7774"
     d="M 5247.3535,10304.406 V 9304.4057" />
  <path
     style="fill:#009600;fill-opacity:0;stroke:#009600;stroke-width:60;stroke-linecap:round;stroke-linejoin:round;stroke-opacity:1"
     inkscape:connector-curvature="0"
     id="path7780"
     d="m 5247.3535,3304.4057 v -1000" />
  <g
     style="fill:#009600;fill-opacity:0;stroke:#009600;stroke-width:60;stroke-linecap:round;stroke-linejoin:round;stroke-opacity:1"
     id="g8180"
     transform="translate(-6252.6465,-7195.5943)" />
</svg>
